<svg width="35" height="35" viewBox="0 0 35 35" fill="none" xmlns="http://www.w3.org/2000/svg">
<g clip-path="url(#clip0)">
<path d="M29.4091 22.9251C25.7807 22.9251 17.3616 20.2749 13.628 16.9701C12.251 15.7512 11.5527 14.496 11.5527 13.2392C11.5527 10.4498 13.822 8.18058 16.6113 8.18058C17.0894 8.18058 17.5612 8.24764 18.0141 8.3782C18.6991 6.38642 20.5868 4.97192 22.7979 4.97192C24.6251 4.97192 26.2966 5.9656 27.1872 7.51523C27.33 7.50314 27.4735 7.49705 27.6172 7.49705C30.4065 7.49705 32.6758 9.76631 32.6758 12.5556C32.6758 12.8837 32.6447 13.2075 32.5829 13.5249C34.0587 14.4333 35 16.0671 35 17.8385C35 19.1676 34.4651 20.4083 33.4938 21.332C32.608 22.1743 31.3907 22.7275 30.0659 22.8895C29.87 22.9134 29.65 22.9251 29.4091 22.9251Z" fill="#EEE1DC"/>
<path d="M32.5829 13.5249C32.6447 13.2074 32.6758 12.8837 32.6758 12.5556C32.6758 9.76626 30.4065 7.497 27.6172 7.497C27.4734 7.497 27.33 7.50309 27.1872 7.51519C26.375 6.10199 24.9133 5.15159 23.2764 4.99512V21.7546C25.6866 22.4907 27.9403 22.9251 29.4091 22.9251C29.65 22.9251 29.87 22.9134 30.0659 22.8895C31.3907 22.7275 32.608 22.1744 33.4938 21.332C34.4651 20.4082 35 19.1676 35 17.8385C35 16.0672 34.0587 14.4334 32.5829 13.5249Z" fill="#E0D2CD"/>
<path d="M14.5696 30.028C13.4014 30.028 12.2583 29.6246 11.3508 28.8921C10.8815 28.5133 10.4843 28.0546 10.176 27.543C9.51057 27.949 8.73811 28.1734 7.94288 28.1734C6.0323 28.1734 4.38669 26.9023 3.84583 25.1436C2.96399 25.0523 2.12317 24.6891 1.44758 24.0923C0.527666 23.2797 0 22.1095 0 20.8816C0 18.6629 1.69511 16.8327 3.85813 16.6177C4.0803 15.917 4.48144 15.2809 5.03152 14.7713C5.82572 14.0354 6.85966 13.6303 7.94288 13.6303C8.73065 13.6303 9.49676 13.8508 10.1583 14.2501C10.4657 13.7321 10.8639 13.2674 11.336 12.8834C12.2462 12.143 13.3946 11.7354 14.5696 11.7354C15.7447 11.7354 16.8931 12.143 17.8032 12.8834C18.2753 13.2674 18.6735 13.7322 18.9809 14.2501C19.6425 13.8509 20.4086 13.6303 21.1964 13.6303C22.2796 13.6303 23.3136 14.0355 24.1078 14.7713C24.658 15.2811 25.0592 15.9174 25.2813 16.6184C26.167 16.7076 27.0117 17.0709 27.6903 17.6697C28.6112 18.4824 29.1393 19.6531 29.1393 20.8816C29.1393 22.1095 28.6117 23.2797 27.6917 24.0923C27.0162 24.689 26.1753 25.0522 25.2934 25.1436C24.7526 26.9022 23.1069 28.1733 21.1964 28.1733C20.4012 28.1733 19.6286 27.9489 18.9633 27.5429C18.655 28.0545 18.2578 28.5132 17.7885 28.892C16.8809 29.6245 15.7378 30.028 14.5696 30.028Z" fill="#FFF4F4"/>
<path d="M27.6902 17.6697C27.0117 17.0709 26.167 16.7076 25.2813 16.6184C25.0592 15.9174 24.658 15.2811 24.1077 14.7713C23.3135 14.0354 22.2796 13.6303 21.1963 13.6303C20.4086 13.6303 19.6425 13.8509 18.9809 14.2501C18.6735 13.7321 18.2753 13.2674 17.8032 12.8834C16.893 12.143 15.7446 11.7354 14.5696 11.7354V30.028C15.7377 30.028 16.8809 29.6246 17.7884 28.8921C18.2576 28.5133 18.6549 28.0546 18.9632 27.543C19.6285 27.949 20.4011 28.1734 21.1963 28.1734C23.1068 28.1734 24.7525 26.9023 25.2933 25.1436C26.1751 25.0523 27.016 24.689 27.6916 24.0924C28.6116 23.2798 29.1392 22.1096 29.1392 20.8817C29.1393 19.6531 28.6112 18.4824 27.6902 17.6697Z" fill="#F6EFEA"/>
</g>
<defs>
<clipPath id="clip0">
<rect width="35" height="35" fill="white"/>
</clipPath>
</defs>
</svg>
